#!OML:ASF F:\VICON\USERDATA\INSTALL\rory3\rory3.ASF
:FULLY-SPECIFIED
:DEGREES
137
root -0.254474 16.7101 32.9596 1.1546 0.510988 -0.665103
lowerback 15.4459 2.13216 -1.6465
upperback -0.0761144 2.50494 -0.292323
thorax -8.82341 1.26868 0.0474153
lowerneck -20.2945 -4.45109 -2.16464
upperneck 9.88419 -6.28124 5.90239
head 6.56354 -2.59421 1.54172
rclavicle 1.77415e-014 1.19271e-015
rhumerus -42.5391 13.0981 -102.401
rradius 98.633
rwrist -7.08912
rhand -20.8692 34.2611
rfingers 7.12502
rthumb 5.50062 4.35252
lclavicle 1.77415e-014 1.19271e-015
lhumerus -44.6471 -13.2219 99.2969
lradius 110.108
lwrist 26.9245
lhand -28.6068 3.72004
lfingers 7.12502
lthumb -1.97192 33.6907
rfemur -27.4616 -4.11337 18.7672
rtibia 99.1845
rfoot -3.46478 -5.2743
rtoes 4.86654
lfemur -16.7584 1.47735 -29.1791
ltibia 49.942
lfoot -26.2701 1.10928
ltoes 6.22402
138
root -0.256374 16.7201 33.3953 1.43949 0.274022 -0.38279
lowerback 15.3855 1.97986 -1.99459
upperback -0.177366 2.23092 -0.400276
thorax -8.90428 1.15047 0.190605
lowerneck -20.4343 -4.30082 -1.99763
upperneck 9.93064 -6.10767 5.78616
head 6.58473 -2.51075 1.49609
rclavicle 5.8716e-014 -1.55052e-014
rhumerus -43.436 13.1138 -102.63
rradius 98.7505
rwrist -7.3275
rhand -20.9541 34.5938
rfingers 7.12502
rthumb 5.41864 4.68311
lclavicle 5.8716e-014 -1.55052e-014
lhumerus -43.0848 -13.2915 99.0863
lradius 110.568
lwrist 25.8935
lhand -28.2196 3.32601
lfingers 7.12502
lthumb -1.59798 33.2998
rfemur -30.0981 -4.17274 18.6236
rtibia 98.9275
rfoot -4.08183 -5.09774
rtoes 1.0693
lfemur -14.9975 1.4965 -29.4926
ltibia 49.2364
lfoot -26.2467 1.10742
ltoes 6.54386
139
root -0.246037 16.7407 33.8291 1.68533 0.333715 -0.00445056
lowerback 15.2961 1.66502 -2.23979
upperback -0.189886 1.76292 -0.495405
thorax -8.86124 0.934358 0.336708
lowerneck -20.832 -4.17073 -1.94938
upperneck 10.1872 -5.93511 5.64561
head 6.7187 -2.42564 1.4567
rclavicle 1.51573e-015 -5.36719e-015
rhumerus -44.1708 13.4597 -102.73
rradius 99.1219
rwrist -8.01243
rhand -20.6678 34.6996
rfingers 7.12502
rthumb 5.69511 4.7961
lclavicle 1.51573e-015 -5.36719e-015
lhumerus -41.8304 -13.2983 99.0435
lradius 111.34
lwrist 24.656
lhand -28.539 2.82325
lfingers 7.12502
lthumb -1.90644 32.7945
rfemur -32.3691 -4.47157 18.3104
rtibia 98.234
rfoot -4.35147 -4.89417
rtoes 2.38162
lfemur -13.0051 1.2204 -29.9769
ltibia 48.2779
lfoot -25.8556 1.54401
ltoes 3.97034
140
root -0.238728 16.7794 34.2667 1.77883 0.718334 -0.265035
lowerback 15.3569 1.17357 -1.93633
upperback -0.202347 1.18149 -0.299425
thorax -8.89115 0.646774 0.506966
lowerneck -21.2058 -4.04464 -2.02761
upperneck 10.597 -5.74742 5.54688
head 6.90402 -2.33276 1.45294
rclavicle 1.2424e-016 -2.0276e-014
rhumerus -45.044 14.0031 -102.759
rradius 99.5982
rwrist -8.68611
rhand -20.5595 34.59
rfingers 7.12502
rthumb 5.79965 4.68941
lclavicle 1.2424e-016 -2.0276e-014
lhumerus -40.5613 -13.1591 99.0088
lradius 112.068
lwrist 24.1412
lhand -28.9262 1.88731
lfingers 7.12502
lthumb -2.28043 31.8549
rfemur -34.3256 -4.85638 18.8589
rtibia 97.0089
rfoot -4.88698 -5.02155
rtoes 3.84368
lfemur -10.7502 0.406067 -29.6526
ltibia 47.1863
lfoot -25.0775 1.11381
ltoes 2.77389
141
root -0.234532 16.8594 34.7325 1.71343 1.45671 -0.105041
lowerback 15.4647 0.637747 -2.02069
upperback -0.259662 0.462181 -0.189764
thorax -8.99751 0.309261 0.835771
lowerneck -20.9826 -3.90893 -2.20431
upperneck 10.6533 -5.50519 5.45293
head 6.87816 -2.23622 1.48277
rclavicle -1.23743e-014 -3.57812e-015
rhumerus -46.3076 14.2239 -102.773
rradius 100.239
rwrist -9.11095
rhand -20.2334 34.8288
rfingers 7.12502
rthumb 6.11445 4.93705
lclavicle -1.23743e-014 -3.57812e-015
lhumerus -39.3803 -13.1123 98.9142
lradius 112.871
lwrist 24.8011
lhand -29.1347 2.02795
lfingers 7.12502
lthumb -2.48178 31.9933
rfemur -35.6795 -5.54873 18.9606
rtibia 95.2753
rfoot -5.65865 -5.02507
rtoes 2.59481
lfemur -8.34772 -0.718334 -29.7301
ltibia 45.9749
lfoot -23.8209 -0.00703674
ltoes 2.00359
142
root -0.237306 16.9605 35.2129 1.89195 1.95692 -0.0124947
lowerback 15.2278 0.146207 -2.26712
upperback -0.3864 -0.213589 -0.00879399
thorax -8.97889 0.00172917 1.32448
lowerneck -20.6363 -3.66968 -2.2568
upperneck 10.5389 -5.13319 5.24517
head 6.76449 -2.08748 1.47319
rclavicle 9.64106e-015 9.34288e-015
rhumerus -47.8033 14.4111 -102.798
rradius 101.148
rwrist -9.71549
rhand -19.4134 35.2813
rfingers 7.12502
rthumb 6.90614 5.414
lclavicle 9.64106e-015 9.34288e-015
lhumerus -38.3746 -12.9277 98.6977
lradius 113.764
lwrist 25.7867
lhand -29.1528 1.88564
lfingers 7.12502
lthumb -2.49931 31.8507
rfemur -36.9743 -5.85943 19.2593
rtibia 93.0501
rfoot -6.57573 -5.12094
rtoes 1.05876
lfemur -6.30774 -1.07719 -29.7344
ltibia 44.7379
lfoot -22.4578 -0.0817364
ltoes -4.83262
143
root -0.346444 17.0234 35.6585 2.76518 -3.11531 -0.144353
lowerback 14.204 1.83926 -4.97581
upperback -0.656098 1.64587 0.513664
thorax -8.86651 1.0363 3.01304
lowerneck -20.9095 -3.50561 -2.19202
upperneck 10.7812 -4.88067 4.88761
head 6.86526 -1.98803 1.37295
rclavicle 4.44532e-014 -1.21259e-014
rhumerus -48.9409 14.7322 -102.72
rradius 101.712
rwrist -10.2501
rhand -18.8926 35.4198
rfingers 7.12502
rthumb 7.4088 5.56954
lclavicle 4.44532e-014 -1.21259e-014
lhumerus -37.2869 -12.814 98.4854
lradius 114.516
lwrist 26.99
lhand -29.0302 1.63911
lfingers 7.12502
lthumb -2.3809 31.6056
rfemur -40.2951 0.0344655 20.2645
rtibia 90.9083
rfoot -6.08726 -6.03563
rtoes 1.75452
lfemur -5.07816 3.55557 -29.5119
ltibia 43.3573
lfoot -21.1999 0.791676
ltoes -13.3971
144
root -0.24335 17.1504 36.1714 2.18774 1.68674 -0.553849
lowerback 14.5922 -0.338463 -2.23324
upperback -0.413516 -0.785542 0.555942
thorax -8.61642 -0.265733 2.03225
lowerneck -21.2465 -3.35412 -2.07644
upperneck 11.1166 -4.64883 4.45489
head 7.00573 -1.90215 1.23654
rclavicle -4.96962e-017 -7.65321e-015
rhumerus -49.8831 15.0721 -102.525
rradius 101.968
rwrist -10.7467
rhand -19.012 35.5654
rfingers 7.12502
rthumb 7.29353 5.71111
lclavicle -4.96962e-017 -7.65321e-015
lhumerus -36.1891 -12.9185 98.2916
lradius 115.169
lwrist 28.2944
lhand -29.2343 1.16957
lfingers 7.12502
lthumb -2.57798 31.1337
rfemur -39.5015 -4.64458 20.6645
rtibia 87.771
rfoot -7.6049 -5.47727
rtoes 2.98825
lfemur -1.85982 -0.864187 -29.0059
ltibia 41.8494
lfoot -18.588 -0.283804
ltoes -16.734
145
root -0.234574 17.2656 36.6687 2.36398 1.86252 -0.520107
lowerback 14.1482 -0.678398 -2.26544
upperback -0.492018 -1.22345 0.673181
thorax -8.42366 -0.475472 2.26152
lowerneck -21.3485 -3.10104 -1.75835
upperneck 11.3671 -4.32286 3.94257
head 7.07294 -1.77555 1.05592
rclavicle 1.26725e-014 4.77083e-015
rhumerus -50.9894 15.16 -102.452
rradius 102.255
rwrist -11.2522
rhand -18.6997 35.8363
rfingers 7.12502
rthumb 7.59499 5.99266
lclavicle 1.26725e-014 4.77083e-015
lhumerus -35.3806 -13.0626 97.9048
lradius 115.888
lwrist 29.5977
lhand -29.8092 1.0994
lfingers 7.12502
lthumb -3.13318 31.0561
rfemur -40.1962 -4.30884 20.867
rtibia 84.6323
rfoot -8.47203 -5.20928
rtoes 1.87572
lfemur 0.161594 -1.05827 -28.8922
ltibia 40.214
lfoot -15.9779 -2.05069
ltoes -19.3154
146
root -0.225425 17.38 37.1595 2.59345 1.68352 -0.433971
lowerback 14.0386 -0.901095 -2.40487
upperback -0.812943 -1.53317 0.800258
thorax -8.6861 -0.60756 2.54474
lowerneck -21.2996 -2.82516 -1.50928
upperneck 11.7661 -3.95866 3.47043
head 7.16925 -1.63067 0.904843
rclavicle -2.00648e-015 -3.8266e-015
rhumerus -52.7021 15.0741 -102.458
rradius 102.854
rwrist -11.5471
rhand -18.2532 36.0653
rfingers 7.12502
rthumb 8.02594 6.23767
lclavicle -2.00648e-015 -3.8266e-015
lhumerus -35.1538 -12.9079 97.6002
lradius 116.653
lwrist 30.6743
lhand -30.1617 1.3406
lfingers 7.12502
lthumb -3.47364 31.292
rfemur -40.7099 -3.70284 21.034
rtibia 81.1145
rfoot -8.84864 -4.82682
rtoes -0.177334
lfemur 2.00962 -0.937057 -28.8284
ltibia 38.4494
lfoot -12.7273 -4.33733
ltoes -21.3921
147
root -0.221425 17.507 37.661 2.66632 0.954489 -0.431675
lowerback 13.8244 -0.886502 -2.63712
upperback -0.983753 -1.53461 0.972775
thorax -8.73934 -0.590274 2.85927
lowerneck -20.9661 -2.65953 -1.67666
upperneck 11.8198 -3.69265 3.47141
head 7.12877 -1.51463 0.967379
rclavicle 1.49682e-014 8.9919e-016
rhumerus -54.267 14.8663 -102.306
rradius 103.379
rwrist -11.7487
rhand -17.9872 36.2705
rfingers 7.12502
rthumb 8.2827 6.45288
lclavicle 1.49682e-014 8.9919e-016
lhumerus -35.0102 -12.6546 97.3048
lradius 117.219
lwrist 31.2601
lhand -30.0623 1.27987
lfingers 7.12502
lthumb -3.37765 31.2329
rfemur -40.9312 -2.43302 21.2364
rtibia 77.3328
rfoot -8.87257 -4.43632
rtoes -1.81398
lfemur 4.00723 -0.292168 -28.6475
ltibia 36.5454
lfoot -9.02454 -6.81703
ltoes -22.4253
148
root -0.213739 17.6409 38.1766 2.65264 0.159321 -0.760076
lowerback 13.3926 -0.873612 -2.47287
upperback -0.936137 -1.45936 1.21447
thorax -8.44341 -0.562703 2.99605
lowerneck -21.3185 -2.62257 -2.00497
upperneck 12.2911 -3.58537 3.61967
head 7.34812 -1.4555 1.0782
rclavicle 9.85227e-015 7.7526e-015
rhumerus -55.3694 14.6618 -102.044
rradius 103.682
rwrist -11.9285
rhand -17.7492 36.418
rfingers 7.12502
rthumb 8.51242 6.60959
lclavicle 9.85227e-015 7.7526e-015
lhumerus -34.3926 -12.5377 96.7666
lradius 117.692
lwrist 31.5217
lhand -29.7069 3.47958
lfingers 7.12502
lthumb -3.03444 33.4377
rfemur -40.8688 -0.927555 21.6585
rtibia 73.1995
rfoot -8.81779 -3.83461
rtoes -2.63342
lfemur 6.06167 0.431107 -28.0854
ltibia 34.6128
lfoot -4.83518 -9.07224
ltoes -24.2717
149
root -0.192114 17.7447 38.6851 2.60467 -0.38419 -0.824489
lowerback 13.2043 -0.969548 -2.22276
upperback -0.996095 -1.5377 1.2848
thorax -8.39962 -0.610653 2.9408
lowerneck -22.2746 -2.64134 -1.841
upperneck 13.4922 -3.59989 3.14505
head 7.89289 -1.479 0.881884
rclavicle 1.05604e-015 3.72721e-015
rhumerus -56.5722 14.3239 -101.951
rradius 103.896
rwrist -12.0563
rhand -17.8585 36.2768
rfingers 7.12502
rthumb 8.40689 6.46407
lclavicle 1.05604e-015 3.72721e-015
lhumerus -33.6988 -12.7927 96.0284
lradius 117.973
lwrist 31.5163
lhand -29.7968 5.54515
lfingers 7.12502
lthumb -3.12118 35.5021
rfemur -40.7181 0.107645 21.7179
rtibia 68.9445
rfoot -8.68504 -3.09983
rtoes -4.30324
lfemur 8.13427 0.708569 -27.9423
ltibia 32.5988
lfoot -0.141589 -11.0117
ltoes -27.6049
